<mxfile host="app.diagrams.net" modified="2022-12-27T09:56:39.655Z" agent="5.0 (Windows NT 10.0; Win64; x64) AppleWebKit/537.36 (KHTML, like Gecko) Chrome/108.0.0.0 Safari/537.36" etag="a9m2RM1UU8R99uwO5wxt" version="20.7.4" type="github" pages="2">
  <diagram id="SGFUXrC3W7ejvEjejlwu" name="Page-1">
    <mxGraphModel dx="1733" dy="1000" grid="1" gridSize="10" guides="1" tooltips="1" connect="1" arrows="1" fold="1" page="1" pageScale="1" pageWidth="827" pageHeight="1169" math="0" shadow="0">
      <root>
        <mxCell id="0" />
        <mxCell id="1" parent="0" />
        <mxCell id="2MIcZsTjXnHAhtx0bsnO-13" value="" style="group" parent="1" vertex="1" connectable="0">
          <mxGeometry x="50" y="40" width="265" height="740" as="geometry" />
        </mxCell>
        <mxCell id="Ti3Ax8mR36JvUIu3DjGp-1" value="Start" style="strokeWidth=2;html=1;shape=mxgraph.flowchart.start_1;whiteSpace=wrap;" parent="2MIcZsTjXnHAhtx0bsnO-13" vertex="1">
          <mxGeometry x="70" width="100" height="60" as="geometry" />
        </mxCell>
        <mxCell id="Ti3Ax8mR36JvUIu3DjGp-4" value="createNewTransaction&lt;br&gt;" style="whiteSpace=wrap;html=1;strokeWidth=2;" parent="2MIcZsTjXnHAhtx0bsnO-13" vertex="1">
          <mxGeometry x="55" y="230" width="130" height="60" as="geometry" />
        </mxCell>
        <mxCell id="Ti3Ax8mR36JvUIu3DjGp-6" value="Add to pendingTransaction" style="whiteSpace=wrap;html=1;strokeWidth=2;" parent="2MIcZsTjXnHAhtx0bsnO-13" vertex="1">
          <mxGeometry x="60" y="320" width="120" height="60" as="geometry" />
        </mxCell>
        <mxCell id="Ti3Ax8mR36JvUIu3DjGp-7" value="" style="edgeStyle=orthogonalEdgeStyle;rounded=0;orthogonalLoop=1;jettySize=auto;html=1;" parent="2MIcZsTjXnHAhtx0bsnO-13" source="Ti3Ax8mR36JvUIu3DjGp-4" target="Ti3Ax8mR36JvUIu3DjGp-6" edge="1">
          <mxGeometry relative="1" as="geometry" />
        </mxCell>
        <mxCell id="2MIcZsTjXnHAhtx0bsnO-11" value="" style="edgeStyle=orthogonalEdgeStyle;rounded=0;orthogonalLoop=1;jettySize=auto;html=1;fontSize=12;" parent="2MIcZsTjXnHAhtx0bsnO-13" source="Ti3Ax8mR36JvUIu3DjGp-8" target="Ti3Ax8mR36JvUIu3DjGp-4" edge="1">
          <mxGeometry relative="1" as="geometry" />
        </mxCell>
        <mxCell id="Ti3Ax8mR36JvUIu3DjGp-8" value="&lt;ul&gt;&lt;li&gt;category&lt;/li&gt;&lt;li&gt;sender&lt;/li&gt;&lt;li&gt;receiver&lt;/li&gt;&lt;li style=&quot;&quot;&gt;transactionId&lt;/li&gt;&lt;/ul&gt;" style="shape=parallelogram;perimeter=parallelogramPerimeter;whiteSpace=wrap;html=1;fixedSize=1;strokeWidth=2;align=left;" parent="2MIcZsTjXnHAhtx0bsnO-13" vertex="1">
          <mxGeometry x="55" y="100" width="130" height="90" as="geometry" />
        </mxCell>
        <mxCell id="2MIcZsTjXnHAhtx0bsnO-12" value="" style="edgeStyle=orthogonalEdgeStyle;rounded=0;orthogonalLoop=1;jettySize=auto;html=1;fontSize=12;" parent="2MIcZsTjXnHAhtx0bsnO-13" source="Ti3Ax8mR36JvUIu3DjGp-1" target="Ti3Ax8mR36JvUIu3DjGp-8" edge="1">
          <mxGeometry relative="1" as="geometry" />
        </mxCell>
        <mxCell id="Ti3Ax8mR36JvUIu3DjGp-12" value="For Each Nodes call /transaction" style="whiteSpace=wrap;html=1;strokeWidth=2;" parent="2MIcZsTjXnHAhtx0bsnO-13" vertex="1">
          <mxGeometry x="60" y="420" width="120" height="60" as="geometry" />
        </mxCell>
        <mxCell id="Ti3Ax8mR36JvUIu3DjGp-13" value="" style="edgeStyle=orthogonalEdgeStyle;rounded=0;orthogonalLoop=1;jettySize=auto;html=1;fontSize=12;" parent="2MIcZsTjXnHAhtx0bsnO-13" source="Ti3Ax8mR36JvUIu3DjGp-6" target="Ti3Ax8mR36JvUIu3DjGp-12" edge="1">
          <mxGeometry relative="1" as="geometry" />
        </mxCell>
        <mxCell id="2MIcZsTjXnHAhtx0bsnO-5" value="Everynode adds transaction to pending transaction" style="whiteSpace=wrap;html=1;strokeWidth=2;" parent="2MIcZsTjXnHAhtx0bsnO-13" vertex="1">
          <mxGeometry x="60" y="530" width="120" height="60" as="geometry" />
        </mxCell>
        <mxCell id="2MIcZsTjXnHAhtx0bsnO-6" value="" style="edgeStyle=orthogonalEdgeStyle;rounded=0;orthogonalLoop=1;jettySize=auto;html=1;fontSize=12;" parent="2MIcZsTjXnHAhtx0bsnO-13" source="Ti3Ax8mR36JvUIu3DjGp-12" target="2MIcZsTjXnHAhtx0bsnO-5" edge="1">
          <mxGeometry relative="1" as="geometry" />
        </mxCell>
        <mxCell id="2MIcZsTjXnHAhtx0bsnO-7" value="End" style="strokeWidth=2;html=1;shape=mxgraph.flowchart.terminator;whiteSpace=wrap;fontSize=12;" parent="2MIcZsTjXnHAhtx0bsnO-13" vertex="1">
          <mxGeometry x="70" y="620" width="100" height="60" as="geometry" />
        </mxCell>
        <mxCell id="2MIcZsTjXnHAhtx0bsnO-8" value="" style="edgeStyle=orthogonalEdgeStyle;rounded=0;orthogonalLoop=1;jettySize=auto;html=1;fontSize=12;" parent="2MIcZsTjXnHAhtx0bsnO-13" source="2MIcZsTjXnHAhtx0bsnO-5" target="2MIcZsTjXnHAhtx0bsnO-7" edge="1">
          <mxGeometry relative="1" as="geometry" />
        </mxCell>
        <mxCell id="2MIcZsTjXnHAhtx0bsnO-10" value="Fig: Flowchart For /transaction-broadcast endpoint&lt;br&gt;" style="text;html=1;align=center;verticalAlign=middle;resizable=0;points=[];autosize=1;strokeColor=none;fillColor=none;fontSize=12;" parent="2MIcZsTjXnHAhtx0bsnO-13" vertex="1">
          <mxGeometry x="-25" y="710" width="290" height="30" as="geometry" />
        </mxCell>
        <mxCell id="2MIcZsTjXnHAhtx0bsnO-52" value="Fig: Flowchart for /mine endpoint" style="text;html=1;align=center;verticalAlign=middle;resizable=0;points=[];autosize=1;strokeColor=none;fillColor=none;fontSize=12;" parent="1" vertex="1">
          <mxGeometry x="370" y="1240" width="200" height="30" as="geometry" />
        </mxCell>
        <mxCell id="2MIcZsTjXnHAhtx0bsnO-14" value="Start" style="strokeWidth=2;html=1;shape=mxgraph.flowchart.start_1;whiteSpace=wrap;" parent="1" vertex="1">
          <mxGeometry x="424" y="40" width="100" height="60" as="geometry" />
        </mxCell>
        <mxCell id="2MIcZsTjXnHAhtx0bsnO-18" value="&lt;ul&gt;&lt;li&gt;lastblock&lt;/li&gt;&lt;li&gt;transaction&lt;/li&gt;&lt;/ul&gt;" style="shape=parallelogram;perimeter=parallelogramPerimeter;whiteSpace=wrap;html=1;fixedSize=1;align=left;strokeWidth=2;" parent="1" vertex="1">
          <mxGeometry x="414" y="160" width="120" height="60" as="geometry" />
        </mxCell>
        <mxCell id="2MIcZsTjXnHAhtx0bsnO-20" value="" style="edgeStyle=orthogonalEdgeStyle;rounded=0;orthogonalLoop=1;jettySize=auto;html=1;fontSize=12;" parent="1" source="2MIcZsTjXnHAhtx0bsnO-14" target="2MIcZsTjXnHAhtx0bsnO-18" edge="1">
          <mxGeometry relative="1" as="geometry" />
        </mxCell>
        <mxCell id="2MIcZsTjXnHAhtx0bsnO-21" value="create currentBlockdata" style="whiteSpace=wrap;html=1;align=center;strokeWidth=2;" parent="1" vertex="1">
          <mxGeometry x="414" y="270" width="120" height="60" as="geometry" />
        </mxCell>
        <mxCell id="2MIcZsTjXnHAhtx0bsnO-22" value="" style="edgeStyle=orthogonalEdgeStyle;rounded=0;orthogonalLoop=1;jettySize=auto;html=1;fontSize=12;" parent="1" source="2MIcZsTjXnHAhtx0bsnO-18" target="2MIcZsTjXnHAhtx0bsnO-21" edge="1">
          <mxGeometry relative="1" as="geometry" />
        </mxCell>
        <mxCell id="2MIcZsTjXnHAhtx0bsnO-23" value="create Nonce for currentBlockdata using proof of work" style="whiteSpace=wrap;html=1;strokeWidth=2;fontSize=12;" parent="1" vertex="1">
          <mxGeometry x="414" y="380" width="120" height="60" as="geometry" />
        </mxCell>
        <mxCell id="2MIcZsTjXnHAhtx0bsnO-24" value="" style="edgeStyle=orthogonalEdgeStyle;rounded=0;orthogonalLoop=1;jettySize=auto;html=1;fontSize=12;" parent="1" source="2MIcZsTjXnHAhtx0bsnO-21" target="2MIcZsTjXnHAhtx0bsnO-23" edge="1">
          <mxGeometry relative="1" as="geometry" />
        </mxCell>
        <mxCell id="2MIcZsTjXnHAhtx0bsnO-25" value="generate a nonce for hash containing initial four zeros" style="html=1;points=[];perimeter=orthogonalPerimeter;fontSize=12;" parent="1" vertex="1">
          <mxGeometry x="630" y="389" width="306" height="42" as="geometry" />
        </mxCell>
        <mxCell id="2MIcZsTjXnHAhtx0bsnO-26" value="proofOfWork" style="html=1;verticalAlign=bottom;endArrow=block;entryX=0;entryY=0;rounded=0;fontSize=12;" parent="1" target="2MIcZsTjXnHAhtx0bsnO-25" edge="1">
          <mxGeometry relative="1" as="geometry">
            <mxPoint x="534" y="390" as="sourcePoint" />
          </mxGeometry>
        </mxCell>
        <mxCell id="2MIcZsTjXnHAhtx0bsnO-27" value="return nonce" style="html=1;verticalAlign=bottom;endArrow=open;dashed=1;endSize=8;exitX=0;exitY=0.95;rounded=0;fontSize=12;" parent="1" source="2MIcZsTjXnHAhtx0bsnO-25" edge="1">
          <mxGeometry x="-0.1109" y="1" relative="1" as="geometry">
            <mxPoint x="540" y="430" as="targetPoint" />
            <mxPoint as="offset" />
          </mxGeometry>
        </mxCell>
        <mxCell id="2MIcZsTjXnHAhtx0bsnO-28" value="create Blockhash" style="whiteSpace=wrap;html=1;strokeWidth=2;" parent="1" vertex="1">
          <mxGeometry x="414" y="490" width="120" height="60" as="geometry" />
        </mxCell>
        <mxCell id="2MIcZsTjXnHAhtx0bsnO-29" value="" style="edgeStyle=orthogonalEdgeStyle;rounded=0;orthogonalLoop=1;jettySize=auto;html=1;fontSize=12;" parent="1" source="2MIcZsTjXnHAhtx0bsnO-23" target="2MIcZsTjXnHAhtx0bsnO-28" edge="1">
          <mxGeometry relative="1" as="geometry" />
        </mxCell>
        <mxCell id="2MIcZsTjXnHAhtx0bsnO-30" value="generate hash using sha256&amp;nbsp;" style="html=1;points=[];perimeter=orthogonalPerimeter;fontSize=12;" parent="1" vertex="1">
          <mxGeometry x="636.7241379310344" y="500" width="193.2758620689655" height="41" as="geometry" />
        </mxCell>
        <mxCell id="2MIcZsTjXnHAhtx0bsnO-31" value="blockHash" style="html=1;verticalAlign=bottom;endArrow=block;entryX=0;entryY=0;rounded=0;fontSize=12;" parent="1" edge="1">
          <mxGeometry x="0.0814" relative="1" as="geometry">
            <mxPoint x="535" y="500" as="sourcePoint" />
            <mxPoint x="636.7241379310344" y="500" as="targetPoint" />
            <mxPoint as="offset" />
          </mxGeometry>
        </mxCell>
        <mxCell id="2MIcZsTjXnHAhtx0bsnO-32" value="returns hash" style="html=1;verticalAlign=bottom;endArrow=open;dashed=1;endSize=8;exitX=0;exitY=0.95;rounded=0;fontSize=12;" parent="1" source="2MIcZsTjXnHAhtx0bsnO-30" edge="1">
          <mxGeometry relative="1" as="geometry">
            <mxPoint x="535" y="540" as="targetPoint" />
          </mxGeometry>
        </mxCell>
        <mxCell id="2MIcZsTjXnHAhtx0bsnO-34" value="Create a new block and calls /receive-new-block on all other nodes&lt;br&gt;" style="whiteSpace=wrap;html=1;strokeWidth=2;" parent="1" vertex="1">
          <mxGeometry x="389" y="585" width="170" height="55" as="geometry" />
        </mxCell>
        <mxCell id="2MIcZsTjXnHAhtx0bsnO-35" value="" style="edgeStyle=orthogonalEdgeStyle;rounded=0;orthogonalLoop=1;jettySize=auto;html=1;fontSize=12;" parent="1" source="2MIcZsTjXnHAhtx0bsnO-28" target="2MIcZsTjXnHAhtx0bsnO-34" edge="1">
          <mxGeometry relative="1" as="geometry" />
        </mxCell>
        <mxCell id="2MIcZsTjXnHAhtx0bsnO-38" value="For each node" style="text;html=1;align=center;verticalAlign=middle;resizable=0;points=[];autosize=1;strokeColor=none;fillColor=none;fontSize=12;" parent="1" vertex="1">
          <mxGeometry x="470" y="640" width="100" height="30" as="geometry" />
        </mxCell>
        <mxCell id="2MIcZsTjXnHAhtx0bsnO-41" value="&lt;div style=&quot;&quot;&gt;&lt;ul&gt;&lt;li&gt;&lt;span style=&quot;background-color: initial;&quot;&gt;newBlock&lt;/span&gt;&lt;/li&gt;&lt;li&gt;&lt;span style=&quot;background-color: initial;&quot;&gt;lastBlock&lt;/span&gt;&lt;/li&gt;&lt;/ul&gt;&lt;/div&gt;" style="shape=parallelogram;html=1;strokeWidth=2;perimeter=parallelogramPerimeter;whiteSpace=wrap;rounded=1;arcSize=12;size=0.23;fontSize=12;align=left;" parent="1" vertex="1">
          <mxGeometry x="413" y="690" width="121" height="60" as="geometry" />
        </mxCell>
        <mxCell id="2MIcZsTjXnHAhtx0bsnO-37" value="" style="edgeStyle=orthogonalEdgeStyle;rounded=0;orthogonalLoop=1;jettySize=auto;html=1;fontSize=12;" parent="1" source="2MIcZsTjXnHAhtx0bsnO-34" target="2MIcZsTjXnHAhtx0bsnO-41" edge="1">
          <mxGeometry relative="1" as="geometry" />
        </mxCell>
        <mxCell id="NTowDMD-mcWirXqhRwbr-28" style="edgeStyle=orthogonalEdgeStyle;rounded=0;orthogonalLoop=1;jettySize=auto;html=1;entryX=0.5;entryY=0;entryDx=0;entryDy=0;fontSize=12;" edge="1" parent="1" source="2MIcZsTjXnHAhtx0bsnO-43" target="NTowDMD-mcWirXqhRwbr-22">
          <mxGeometry relative="1" as="geometry" />
        </mxCell>
        <mxCell id="2MIcZsTjXnHAhtx0bsnO-43" value="Is&lt;br&gt;&amp;nbsp;lastBlock hash&lt;br&gt;===&lt;br&gt;newBlock previoushash&lt;br&gt;?&lt;br&gt;" style="strokeWidth=2;html=1;shape=mxgraph.flowchart.decision;fontSize=12;align=center;" parent="1" vertex="1">
          <mxGeometry x="384" y="780" width="180" height="140" as="geometry" />
        </mxCell>
        <mxCell id="2MIcZsTjXnHAhtx0bsnO-47" value="" style="edgeStyle=orthogonalEdgeStyle;rounded=0;orthogonalLoop=1;jettySize=auto;html=1;fontSize=12;" parent="1" source="2MIcZsTjXnHAhtx0bsnO-41" target="2MIcZsTjXnHAhtx0bsnO-43" edge="1">
          <mxGeometry relative="1" as="geometry" />
        </mxCell>
        <mxCell id="NTowDMD-mcWirXqhRwbr-27" value="" style="edgeStyle=orthogonalEdgeStyle;rounded=0;orthogonalLoop=1;jettySize=auto;html=1;fontSize=12;" edge="1" parent="1" source="2MIcZsTjXnHAhtx0bsnO-45" target="NTowDMD-mcWirXqhRwbr-22">
          <mxGeometry relative="1" as="geometry" />
        </mxCell>
        <mxCell id="2MIcZsTjXnHAhtx0bsnO-45" value="IS&lt;br&gt;lastBlock Index+1&lt;br style=&quot;border-color: var(--border-color);&quot;&gt;===&lt;br style=&quot;border-color: var(--border-color);&quot;&gt;newBlock Index ?" style="rhombus;whiteSpace=wrap;html=1;strokeWidth=2;" parent="1" vertex="1">
          <mxGeometry x="391.63" y="950" width="164.75" height="130" as="geometry" />
        </mxCell>
        <mxCell id="2MIcZsTjXnHAhtx0bsnO-46" value="" style="edgeStyle=orthogonalEdgeStyle;rounded=0;orthogonalLoop=1;jettySize=auto;html=1;fontSize=12;" parent="1" source="2MIcZsTjXnHAhtx0bsnO-43" target="2MIcZsTjXnHAhtx0bsnO-45" edge="1">
          <mxGeometry relative="1" as="geometry" />
        </mxCell>
        <mxCell id="2MIcZsTjXnHAhtx0bsnO-48" value="Yes" style="text;html=1;align=center;verticalAlign=middle;resizable=0;points=[];autosize=1;strokeColor=none;fillColor=none;fontSize=12;" parent="1" vertex="1">
          <mxGeometry x="470" y="915" width="40" height="30" as="geometry" />
        </mxCell>
        <mxCell id="NTowDMD-mcWirXqhRwbr-2" value="" style="edgeStyle=orthogonalEdgeStyle;rounded=0;orthogonalLoop=1;jettySize=auto;html=1;fontSize=12;" edge="1" parent="1" source="2MIcZsTjXnHAhtx0bsnO-49" target="NTowDMD-mcWirXqhRwbr-1">
          <mxGeometry relative="1" as="geometry" />
        </mxCell>
        <mxCell id="2MIcZsTjXnHAhtx0bsnO-49" value="create Block in its copy of the blockchain" style="whiteSpace=wrap;html=1;strokeWidth=2;" parent="1" vertex="1">
          <mxGeometry x="414.01" y="1100" width="120" height="50" as="geometry" />
        </mxCell>
        <mxCell id="2MIcZsTjXnHAhtx0bsnO-50" value="" style="edgeStyle=orthogonalEdgeStyle;rounded=0;orthogonalLoop=1;jettySize=auto;html=1;fontSize=12;" parent="1" source="2MIcZsTjXnHAhtx0bsnO-45" target="2MIcZsTjXnHAhtx0bsnO-49" edge="1">
          <mxGeometry relative="1" as="geometry" />
        </mxCell>
        <mxCell id="NTowDMD-mcWirXqhRwbr-1" value="END" style="strokeWidth=2;html=1;shape=mxgraph.flowchart.terminator;whiteSpace=wrap;fontSize=12;" vertex="1" parent="1">
          <mxGeometry x="423.5" y="1180" width="100" height="60" as="geometry" />
        </mxCell>
        <mxCell id="NTowDMD-mcWirXqhRwbr-26" style="edgeStyle=orthogonalEdgeStyle;rounded=0;orthogonalLoop=1;jettySize=auto;html=1;entryX=1;entryY=0.5;entryDx=0;entryDy=0;entryPerimeter=0;fontSize=12;" edge="1" parent="1" source="NTowDMD-mcWirXqhRwbr-22" target="NTowDMD-mcWirXqhRwbr-1">
          <mxGeometry relative="1" as="geometry">
            <Array as="points">
              <mxPoint x="637" y="1210" />
            </Array>
          </mxGeometry>
        </mxCell>
        <mxCell id="NTowDMD-mcWirXqhRwbr-22" value="Block rejected" style="whiteSpace=wrap;html=1;strokeWidth=2;" vertex="1" parent="1">
          <mxGeometry x="580" y="997.5" width="113.62" height="35" as="geometry" />
        </mxCell>
      </root>
    </mxGraphModel>
  </diagram>
  <diagram id="37MJI_U2qEA0pZlxUwRE" name="Page-2">
    <mxGraphModel dx="780" dy="450" grid="1" gridSize="10" guides="1" tooltips="1" connect="1" arrows="1" fold="1" page="1" pageScale="1" pageWidth="827" pageHeight="1169" math="0" shadow="0">
      <root>
        <mxCell id="0" />
        <mxCell id="1" parent="0" />
      </root>
    </mxGraphModel>
  </diagram>
</mxfile>
